<svg width="190" height="32" viewBox="0 0 190 32" fill="none" xmlns="http://www.w3.org/2000/svg">
<g clip-path="url(#clip0_7_1112)">
<path fill-rule="evenodd" clip-rule="evenodd" d="M56.2609 12.0456C57.5897 13.5187 58.6143 15.1323 58.9511 17.06C59.2108 18.5462 59.4303 20.0291 59.1819 21.6161C58.9391 23.1671 58.4387 24.5357 57.771 25.9044C57.6401 26.1724 57.6309 26.5645 57.7128 26.8585C57.9618 27.7543 58.2988 28.6253 58.5714 29.5152C58.8996 30.5867 58.2598 31.459 57.1386 31.4626C56.804 31.4635 56.4591 31.3897 56.1365 31.2925C55.1848 31.0055 54.242 30.6898 53.3338 30.3974C49.0405 32.5208 44.8981 32.6243 40.8569 30.1646C37.679 28.2305 35.7465 25.3469 35.1825 21.7011C34.7604 18.9732 35.2387 16.3182 36.729 13.9125C38.6472 10.8165 41.3743 8.79071 44.9723 8.20314C49.3664 7.48543 53.1955 8.64713 56.2609 12.0456ZM40.256 15.4519C38.5264 18.0413 38.3299 20.8024 39.704 23.5932C40.9767 26.1777 43.1057 27.7297 45.9505 28.1672C47.584 28.4184 49.2314 28.2538 50.7189 27.4659C51.7276 26.9314 52.6648 26.3094 53.9056 27.0102C53.6543 25.9886 53.729 25.1619 54.2559 24.3101C57.0098 19.8583 55.1278 14.2692 50.1674 12.3209C46.5568 10.9028 42.5363 12.0378 40.256 15.4519Z" fill="#6269E9"/>
<path fill-rule="evenodd" clip-rule="evenodd" d="M4.5703 31.4604V0H0V31.4604H4.5703ZM21.1896 31.9585C24.8458 31.9585 28.0727 30.9209 30.8703 28.8457L28.9591 25.4838C27.962 26.2032 26.764 26.7843 25.3652 27.227C23.9664 27.6697 22.6299 27.8911 21.3558 27.8911C19.2507 27.8911 17.568 27.3653 16.3077 26.3139C15.0474 25.2624 14.251 23.8374 13.9187 22.0389H31.4105C31.5212 21.2918 31.5766 20.5586 31.5766 19.8392C31.5766 16.3805 30.5518 13.6273 28.5021 11.5798C26.4801 9.55988 23.8487 8.54994 20.6079 8.54994C17.2287 8.54994 14.4726 9.65672 12.3398 11.8703C10.2347 14.0562 9.18216 16.837 9.18216 20.2127C9.18216 23.4501 10.2001 26.217 12.2359 28.5136C14.2718 30.8102 17.2564 31.9585 21.1896 31.9585ZM26.9648 18.3035H13.9187C14.251 16.5603 15.0197 15.1561 16.2246 14.0908C17.4295 13.0255 18.8906 12.4929 20.6079 12.4929C22.2975 12.4929 23.731 13.0255 24.9082 14.0908C26.0854 15.1561 26.7709 16.5603 26.9648 18.3035ZM73.7481 32C76.8227 32 79.3294 30.7825 81.2683 28.3476V31.4604H85.7971V0H81.1852V12.2023C79.1632 9.7674 76.6703 8.54994 73.7065 8.54994C70.4935 8.54994 67.8344 9.68439 65.7293 11.9533C63.5965 14.2222 62.5301 16.9892 62.5301 20.2542C62.5301 23.5469 63.5965 26.3415 65.7293 28.6381C67.8344 30.8794 70.5073 32 73.7481 32ZM74.3298 27.808C72.1969 27.808 70.4658 27.0886 69.1362 25.6498C67.8067 24.211 67.1419 22.4125 67.1419 20.2542C67.1419 18.1513 67.8067 16.3805 69.1362 14.9416C70.4658 13.4751 72.1969 12.7419 74.3298 12.7419C76.4626 12.7419 78.1937 13.4751 79.5233 14.9416C80.8528 16.3805 81.5176 18.1513 81.5176 20.2542C81.5176 22.4125 80.8528 24.211 79.5233 25.6498C78.1937 27.0886 76.4626 27.808 74.3298 27.808ZM98.3446 32C100.81 32 102.818 31.3359 104.369 30.0078C105.92 28.6796 106.696 27.0333 106.696 25.0687C106.696 22.6338 105.422 20.7523 102.873 19.4241C102.236 19.0921 101.184 18.6217 99.7157 18.013L97.4306 17.0584C96.1841 16.5326 95.5609 15.7164 95.5609 14.6096C95.5609 13.9179 95.831 13.3368 96.3711 12.8664C96.9112 12.396 97.6383 12.1608 98.5524 12.1608C100.491 12.1608 102.126 12.9771 103.455 14.6096L106.114 11.7873C104.397 9.49071 101.945 8.34241 98.7601 8.34241C96.4888 8.34241 94.633 8.95115 93.1926 10.1686C91.8077 11.3861 91.1152 12.9217 91.1152 14.7756C91.1152 17.2106 92.3063 19.0506 94.6884 20.2957C94.9238 20.4301 95.3635 20.641 96.0073 20.9284L96.243 21.033C96.6094 21.1947 97.0329 21.3778 97.5137 21.5824C98.9817 22.1358 99.8819 22.5093 100.214 22.703C101.488 23.3117 102.126 24.1695 102.126 25.2763C102.126 26.051 101.779 26.7082 101.087 27.2477C100.394 27.7873 99.508 28.0571 98.4277 28.0571C97.3475 28.0571 96.288 27.7596 95.2493 27.1647C94.2106 26.5698 93.3588 25.7328 92.6941 24.6537L89.7441 27.31C90.6582 28.8318 91.877 29.9939 93.4004 30.7964C94.9238 31.5988 96.5719 32 98.3446 32ZM120.988 32C124.063 32 126.611 30.7964 128.633 28.3891V31.4604H133.037V9.08949H128.633V12.2023C126.611 9.7674 124.063 8.54994 120.988 8.54994C117.748 8.54994 115.075 9.64289 112.97 11.8288C110.864 14.0147 109.812 16.7817 109.812 20.1297C109.812 23.5054 110.864 26.3277 112.97 28.5966C115.075 30.8655 117.748 32 120.988 32ZM121.612 27.808C119.479 27.808 117.748 27.0886 116.418 25.6498C115.089 24.211 114.424 22.4263 114.424 20.2957C114.424 18.1652 115.089 16.3805 116.418 14.9416C117.748 13.4751 119.479 12.7419 121.612 12.7419C123.689 12.7419 125.42 13.4751 126.805 14.9416C128.162 16.3805 128.841 18.1513 128.841 20.2542C128.841 22.3848 128.162 24.1695 126.805 25.6083C125.42 27.0748 123.689 27.808 121.612 27.808ZM143.508 31.4604V0H138.937V31.4604H143.508ZM160.127 31.9585C163.783 31.9585 167.01 30.9209 169.808 28.8457L167.896 25.4838C166.899 26.2032 165.701 26.7843 164.302 27.227C162.904 27.6697 161.567 27.8911 160.293 27.8911C158.188 27.8911 156.505 27.3653 155.245 26.3139C153.985 25.2624 153.188 23.8374 152.856 22.0389H170.348C170.458 21.2918 170.514 20.5586 170.514 19.8392C170.514 16.3805 169.489 13.6273 167.439 11.5798C165.417 9.55988 162.786 8.54994 159.545 8.54994C156.166 8.54994 153.41 9.65672 151.277 11.8703C149.172 14.0562 148.119 16.837 148.119 20.2127C148.119 23.4501 149.137 26.217 151.173 28.5136C153.209 30.8102 156.194 31.9585 160.127 31.9585ZM165.902 18.3035H152.856C153.188 16.5603 153.957 15.1561 155.162 14.0908C156.367 13.0255 157.828 12.4929 159.545 12.4929C161.235 12.4929 162.668 13.0255 163.845 14.0908C165.023 15.1561 165.708 16.5603 165.902 18.3035ZM181.649 32C184.114 32 186.122 31.3359 187.673 30.0078C189.224 28.6796 190 27.0333 190 25.0687C190 22.6338 188.726 20.7523 186.178 19.4241C185.54 19.0921 184.488 18.6217 183.02 18.013L180.735 17.0584C179.488 16.5326 178.865 15.7164 178.865 14.6096C178.865 13.9179 179.135 13.3368 179.675 12.8664C180.215 12.396 180.942 12.1608 181.857 12.1608C183.795 12.1608 185.43 12.9771 186.759 14.6096L189.418 11.7873C187.701 9.49071 185.25 8.34241 182.064 8.34241C179.793 8.34241 177.937 8.95115 176.497 10.1686C175.112 11.3861 174.419 12.9217 174.419 14.7756C174.419 17.2106 175.61 19.0506 177.993 20.2957C178.228 20.4301 178.668 20.641 179.311 20.9284L179.547 21.033C179.914 21.1947 180.337 21.3778 180.818 21.5824C182.286 22.1358 183.186 22.5093 183.518 22.703C184.793 23.3117 185.43 24.1695 185.43 25.2763C185.43 26.051 185.083 26.7082 184.391 27.2477C183.699 27.7873 182.812 28.0571 181.732 28.0571C180.652 28.0571 179.592 27.7596 178.553 27.1647C177.515 26.5698 176.663 25.7328 175.998 24.6537L173.048 27.31C173.962 28.8318 175.181 29.9939 176.705 30.7964C178.228 31.5988 179.876 32 181.649 32Z" fill="#4C4BDC"/>
</g>
<defs>
<clipPath id="clip0_7_1112">
<rect width="190" height="32" fill="white"/>
</clipPath>
</defs>
</svg>
